<svg xmlns="http://www.w3.org/2000/svg" viewBox="0 0 360 800" width="360" height="800">
  <defs>
    <style>
      .title { font-family: -apple-system, sans-serif; font-size: 18px; font-weight: 700; fill: #1a1a1a; }
      .body { font-family: -apple-system, sans-serif; font-size: 13px; fill: #333; }
      .label { font-family: -apple-system, sans-serif; font-size: 11px; fill: #999; }
      .tab-text { font-family: -apple-system, sans-serif; font-size: 10px; fill: #999; }
      .tab-active { font-family: -apple-system, sans-serif; font-size: 10px; fill: #FF6B35; font-weight: 600; }
      .stat-num { font-family: -apple-system, sans-serif; font-size: 20px; fill: #FF6B35; font-weight: 700; }
    </style>
  </defs>

  <rect x="10" y="10" width="340" height="780" rx="24" fill="#f8f8f8" stroke="#ddd" stroke-width="1"/>
  <text x="30" y="42" class="label">18:41</text>

  <!-- Header -->
  <text x="30" y="80" class="title" style="font-size:22px;">📊 历史记录</text>

  <!-- View Toggle -->
  <g transform="translate(200, 62)">
    <rect x="0" y="0" width="60" height="28" rx="14" fill="#FFF3E0" stroke="#FF6B35" stroke-width="0.5"/>
    <text x="14" y="19" style="font-family:-apple-system,sans-serif;font-size:10px;fill:#FF6B35;font-weight:600;">📅 日历</text>
    <rect x="68" y="0" width="60" height="28" rx="14" fill="#f5f5f5"/>
    <text x="82" y="19" style="font-family:-apple-system,sans-serif;font-size:10px;fill:#666;">📋 列表</text>
  </g>

  <!-- Stats Cards -->
  <g transform="translate(20, 96)">
    <rect x="0" y="0" width="100" height="72" rx="12" fill="#fff" stroke="#f0f0f0" stroke-width="1"/>
    <text x="36" y="28" class="stat-num">28</text>
    <text x="20" y="48" class="label" style="font-size:10px;">总点餐次数</text>
    <text x="28" y="62" class="label" style="font-size:9px;">本月</text>

    <rect x="110" y="0" width="100" height="72" rx="12" fill="#fff" stroke="#f0f0f0" stroke-width="1"/>
    <text x="40" y="28" class="stat-num">12</text>
    <text x="18" y="48" class="label" style="font-size:10px;">尝试新菜品</text>
    <text x="28" y="62" class="label" style="font-size:9px;">本月</text>

    <rect x="220" y="0" width="100" height="72" rx="12" fill="#fff" stroke="#f0f0f0" stroke-width="1"/>
    <text x="34" y="28" class="stat-num">8</text>
    <text x="22" y="48" class="label" style="font-size:10px;">连续点餐天</text>
    <text x="28" y="62" class="label" style="font-size:9px;">当前</text>
  </g>

  <!-- Mini Calendar -->
  <text x="24" y="196" class="title" style="font-size:14px;">2026年5月</text>
  <g transform="translate(20, 208)">
    <!-- Day headers -->
    <text x="8" y="0" class="label" style="font-size:9px;">一</text>
    <text x="54" y="0" class="label" style="font-size:9px;">二</text>
    <text x="100" y="0" class="label" style="font-size:9px;">三</text>
    <text x="146" y="0" class="label" style="font-size:9px;">四</text>
    <text x="192" y="0" class="label" style="font-size:9px;">五</text>
    <text x="238" y="0" class="label" style="font-size:9px;">六</text>
    <text x="284" y="0" class="label" style="font-size:9px;">日</text>
    <!-- Week 1 -->
    <text x="12" y="24" class="label">28</text>
    <text x="58" y="24" class="label">29</text>
    <text x="104" y="24" class="label">30</text>
    <circle cx="152" cy="20" r="12" fill="#FFF3E0"/>
    <text x="148" y="24" style="font-family:-apple-system,sans-serif;font-size:11px;fill:#FF6B35;font-weight:600;">1</text>
    <circle cx="198" cy="20" r="12" fill="#FFF3E0"/>
    <text x="194" y="24" style="font-family:-apple-system,sans-serif;font-size:11px;fill:#FF6B35;font-weight:600;">2</text>
    <circle cx="244" cy="20" r="12" fill="#FF6B35"/>
    <text x="240" y="24" style="font-family:-apple-system,sans-serif;font-size:11px;fill:#fff;font-weight:700;">3</text>
    <text x="290" y="24" class="label">4</text>
    <!-- More days... -->
  </g>

  <!-- Today's Highlight -->
  <rect x="20" y="270" width="320" height="20" rx="6" fill="#FFF8E1"/>
  <text x="32" y="284" style="font-family:-apple-system,sans-serif;font-size:9px;fill:#F9A825;">💡 今天还没有点餐记录</text>

  <!-- Recent History -->
  <text x="24" y="318" class="title" style="font-size:14px;">最近点餐</text>

  <!-- History Item 1 -->
  <rect x="20" y="330" width="320" height="80" rx="12" fill="#fff" stroke="#f0f0f0" stroke-width="1"/>
  <rect x="30" y="340" width="56" height="56" rx="10" fill="#E8F5E9"/>
  <text x="38" y="374" style="font-family:-apple-system,sans-serif;font-size:10px;fill:#4CAF50;font-weight:600;">5月2日</text>
  <text x="42" y="386" style="font-family:-apple-system,sans-serif;font-size:9px;fill:#4CAF50;">午餐</text>
  <text x="96" y="358" class="body" style="font-weight:600;">宫保鸡丁 + 凯撒沙拉</text>
  <text x="96" y="376" class="label">你选了2道 · 小美选了1道</text>
  <text x="96" y="392" class="label" style="font-size:10px;">⭐ 宫保鸡丁是第3次点</text>

  <!-- History Item 2 -->
  <rect x="20" y="418" width="320" height="80" rx="12" fill="#fff" stroke="#f0f0f0" stroke-width="1"/>
  <rect x="30" y="428" width="56" height="56" rx="10" fill="#FFF3E0"/>
  <text x="38" y="462" style="font-family:-apple-system,sans-serif;font-size:10px;fill:#FF6B35;font-weight:600;">5月1日</text>
  <text x="42" y="474" style="font-family:-apple-system,sans-serif;font-size:9px;fill:#FF6B35;">晚餐</text>
  <text x="96" y="446" class="body" style="font-weight:600;">红烧肉 + 番茄意面</text>
  <text x="96" y="464" class="label">你选了1道 · 小美选了2道</text>
  <text x="96" y="480" class="label" style="font-size:10px;">🆕 番茄意面是新尝试</text>

  <!-- History Item 3 -->
  <rect x="20" y="506" width="320" height="80" rx="12" fill="#fff" stroke="#f0f0f0" stroke-width="1"/>
  <rect x="30" y="516" width="56" height="56" rx="10" fill="#F3E5F5"/>
  <text x="38" y="550" style="font-family:-apple-system,sans-serif;font-size:10px;fill:#9C27B0;font-weight:600;">4月30日</text>
  <text x="42" y="562" style="font-family:-apple-system,sans-serif;font-size:9px;fill:#9C27B0;">晚餐</text>
  <text x="96" y="534" class="body" style="font-weight:600;">可乐鸡翅 + 日式拉面</text>
  <text x="96" y="552" class="label">你选了1道 · 小美选了1道</text>
  <text x="96" y="568" class="label" style="font-size:10px;">⚠️ 已经3天没吃沙拉了</text>

  <!-- Top Dishes -->
  <text x="24" y="614" class="title" style="font-size:14px;">🏆 最爱菜品 Top 5</text>
  <g transform="translate(20, 626)">
    <rect x="0" y="0" width="320" height="28" rx="8" fill="#fff" stroke="#f0f0f0" stroke-width="0.5"/>
    <text x="12" y="19" style="font-family:-apple-system,sans-serif;font-size:11px;fill:#FF6B35;font-weight:700;">🥇</text>
    <text x="32" y="19" class="body" style="font-size:12px;">宫保鸡丁</text>
    <text x="260" y="19" class="label">点了 8 次</text>

    <rect x="0" y="34" width="320" height="28" rx="8" fill="#fff" stroke="#f0f0f0" stroke-width="0.5"/>
    <text x="12" y="53" style="font-family:-apple-system,sans-serif;font-size:11px;fill:#FFA726;font-weight:700;">🥈</text>
    <text x="32" y="53" class="body" style="font-size:12px;">红烧肉</text>
    <text x="260" y="53" class="label">点了 6 次</text>

    <rect x="0" y="68" width="320" height="28" rx="8" fill="#fff" stroke="#f0f0f0" stroke-width="0.5"/>
    <text x="12" y="87" style="font-family:-apple-system,sans-serif;font-size:11px;fill:#A1887F;font-weight:700;">🥉</text>
    <text x="32" y="87" class="body" style="font-size:12px;">番茄意面</text>
    <text x="260" y="87" class="label">点了 5 次</text>

    <rect x="0" y="102" width="320" height="28" rx="8" fill="#fff" stroke="#f0f0f0" stroke-width="0.5"/>
    <text x="12" y="121" style="font-family:-apple-system,sans-serif;font-size:11px;fill:#ccc;">4</text>
    <text x="32" y="121" class="body" style="font-size:12px;">凯撒沙拉</text>
    <text x="260" y="121" class="label">点了 4 次</text>

    <rect x="0" y="136" width="320" height="28" rx="8" fill="#fff" stroke="#f0f0f0" stroke-width="0.5"/>
    <text x="12" y="155" style="font-family:-apple-system,sans-serif;font-size:11px;fill:#ccc;">5</text>
    <text x="32" y="155" class="body" style="font-size:12px;">可乐鸡翅</text>
    <text x="260" y="155" class="label">点了 3 次</text>
  </g>

  <!-- Bottom Tab Bar -->
  <rect x="10" y="720" width="340" height="70" rx="0" fill="#fff" stroke="#f0f0f0" stroke-width="1"/>
  <text x="40" y="750" style="font-family:-apple-system,sans-serif;font-size:18px;">🏠</text>
  <text x="34" y="766" class="tab-text">首页</text>
  <text x="110" y="750" style="font-family:-apple-system,sans-serif;font-size:18px;">📚</text>
  <text x="102" y="766" class="tab-text">菜品库</text>
  <text x="180" y="750" style="font-family:-apple-system,sans-serif;font-size:18px;">🍽️</text>
  <text x="170" y="766" class="tab-text">点餐</text>
  <text x="248" y="750" style="font-family:-apple-system,sans-serif;font-size:18px;">💫</text>
  <text x="242" y="766" class="tab-text">心愿单</text>
  <text x="310" y="750" style="font-family:-apple-system,sans-serif;font-size:18px;">👤</text>
  <text x="306" y="766" class="tab-text">我的</text>
</svg>
